<?xml version="1.0" encoding="UTF-8" standalone="no"?>
<!-- Created with Inkscape (http://www.inkscape.org/) -->

<svg
   width="296.91412mm"
   height="96.503151mm"
   viewBox="0 0 296.91412 96.503151"
   version="1.1"
   id="svg1"
   xml:space="preserve"
   inkscape:version="1.4.2 (f4327f4, 2025-05-13)"
   sodipodi:docname="logo.svg"
   inkscape:export-filename="logo-512.png"
   inkscape:export-xdpi="134.75999"
   inkscape:export-ydpi="134.75999"
   xmlns:inkscape="http://www.inkscape.org/namespaces/inkscape"
   xmlns:sodipodi="http://sodipodi.sourceforge.net/DTD/sodipodi-0.dtd"
   xmlns="http://www.w3.org/2000/svg"
   xmlns:svg="http://www.w3.org/2000/svg"><sodipodi:namedview
     id="namedview1"
     pagecolor="#ffffff"
     bordercolor="#000000"
     borderopacity="0.25"
     inkscape:showpageshadow="2"
     inkscape:pageopacity="0.0"
     inkscape:pagecheckerboard="false"
     inkscape:deskcolor="#d1d1d1"
     inkscape:document-units="mm"
     showguides="true"
     inkscape:zoom="1.4141888"
     inkscape:cx="397.04742"
     inkscape:cy="561.09907"
     inkscape:window-width="3840"
     inkscape:window-height="2526"
     inkscape:window-x="3829"
     inkscape:window-y="-11"
     inkscape:window-maximized="1"
     inkscape:current-layer="layer1" /><defs
     id="defs1"><rect
       x="343.65991"
       y="60.812248"
       width="712.44043"
       height="176.71729"
       id="rect1" /><rect
       x="343.65991"
       y="60.812248"
       width="770.98444"
       height="188.80083"
       id="rect1-2" /></defs><g
     inkscape:label="Layer 1"
     inkscape:groupmode="layer"
     id="layer1"><g
       inkscape:label="Image"
       id="g1"
       transform="matrix(0.26458333,0,0,0.26458333,-12.625069,-2.9517578)"><path
         id="path2"
         style="opacity:1;fill:#000000;fill-opacity:1"
         inkscape:label="Top"
         d="m 159.79688,11.15625 c -19.99707,1.240828 -42.09267,9.541492 -60.958989,23.859375 h 210.167969 2.34961 4.97851 v 28.662109 c 7.73202,9.082782 14.17341,6.871841 20.08204,0 V 19.224609 c 0.31485,-4.220708 -0.92003,-7.489659 -6.52344,-8.068359 z M 86.925781,45.3125 C 80.175916,51.95362 74.104997,59.487686 69.035156,67.851562 H 280.48047 c 6.44264,-7.947639 12.80821,-15.4831 19.08984,-22.539062 z M 63.513672,78.150391 c -3.316441,7.067038 -5.937678,14.62929 -7.708984,22.656249 H 254.9707 c 5.81765,-7.817418 11.58438,-15.384732 17.29492,-22.656249 z m -9.472656,32.955079 c -0.374719,3.04802 -0.628995,6.15494 -0.75586,9.32031 -0.187282,4.67286 -0.07771,9.23488 0.304688,13.67969 H 230.875 c 5.54091,-7.84208 11.04474,-15.52144 16.50586,-23 z m 0.949218,33.29687 c 1.529534,8.18147 3.989593,15.91713 7.201172,23.17188 H 207.61719 c 5.37113,-7.83681 10.71339,-15.57102 16.02343,-23.17188 z m 12.433594,33.47071 c 5.044188,8.75507 11.194579,16.67756 18.064453,23.6875 h 99.035159 c 5.37616,-7.96106 10.72934,-15.86775 16.05664,-23.6875 z M 96.875,211.85742 c 19.77307,15.8551 43.10286,25.12181 62.92188,26.37891 5.94827,-8.8164 11.87686,-17.62318 17.77929,-26.37891 z" /><path
         id="path4"
         style="opacity:1;fill:#32999f;fill-opacity:1"
         inkscape:label="Bottom"
         d="m 232.74414,149.15625 c -6.0111,9.16963 -11.98271,18.22574 -17.96289,27.17187 h 75.76758 C 274.4947,163.90228 254.75064,155.05094 232.74414,149.15625 Z m -24.88672,37.4707 c -5.20244,7.69185 -10.42515,15.30078 -15.69726,22.82813 h 127.07226 c -4.68317,-8.48516 -10.42032,-16.0729 -17.0625,-22.82813 z m -22.98047,33.12696 c -5.58126,7.81223 -11.2328,15.5362 -16.99023,23.17187 h 163.19336 c -1.57021,-8.30298 -3.88526,-16.01721 -6.875,-23.17187 z m -24.86328,33.46875 c -6.01601,7.75785 -12.16019,15.42355 -18.4707,23 h 191.43945 c 0.39495,-3.82563 0.54045,-7.58703 0.43164,-11.24805 -0.11982,-4.0316 -0.39091,-7.94862 -0.80664,-11.75195 z m -27.20117,33.29882 c -6.80158,7.87905 -13.80668,15.65992 -21.05859,23.34375 h 211.74023 c 3.56723,-7.70537 6.19435,-15.58453 7.85156,-23.34375 z m -85.095703,40.11133 v 44.96875 c 0.862653,4.3885 1.437736,3.49704 3.775391,4.29102 H 232.74414 c 22.49543,-2.52538 41.49704,-11.04933 56.72266,-22.94531 H 67.074219 c -0.04483,0.0392 -0.08992,0.0779 -0.134766,0.11718 v -26.43164 c -6.21727,-7.9103 -12.669543,-7.78814 -19.222656,0 z m 54.109373,-6.46875 c -7.475793,7.58999 -15.218357,15.08414 -23.271482,22.48438 H 300.94531 c 6.73577,-6.91528 12.46432,-14.52734 17.14844,-22.48438 z"
         sodipodi:nodetypes="cccccccccccccccccsccccccccccccccccccccc" /></g><text
       xml:space="preserve"
       transform="matrix(0.29786551,0,0,0.29786551,-15.161572,-11.728845)"
       id="text1"
       style="font-size:140.995px;text-align:start;letter-spacing:-6.38123px;writing-mode:lr-tb;direction:ltr;white-space:pre;shape-inside:url(#rect1);display:inline;opacity:1;fill:#1a1a1a"
       inkscape:label="Smart Cover"><tspan
         x="343.66016"
         y="189.44651"
         id="tspan9"><tspan
           style="fill:#000000"
           id="tspan6">Smart</tspan><tspan
           style="font-weight:bold;font-family:'Myriad Pro';-inkscape-font-specification:'Myriad Pro Bold'"
           id="tspan7"> </tspan><tspan
           style="fill:#32999f"
           id="tspan8">Cover</tspan></tspan></text><text
       xml:space="preserve"
       transform="matrix(0.27645925,0,0,0.27645925,-6.8601826,26.690277)"
       id="text1-5"
       style="font-size:154.667px;text-align:start;letter-spacing:-7px;writing-mode:lr-tb;direction:ltr;white-space:pre;shape-inside:url(#rect1-2);display:inline;opacity:1;fill:#000000"
       inkscape:label="Automation"><tspan
         x="343.66016"
         y="201.9199"
         id="tspan11"><tspan
           style="font-weight:bold;font-family:'Myriad Pro';-inkscape-font-specification:'Myriad Pro Bold'"
           id="tspan10">Automation</tspan></tspan></text></g></svg>
